<mxfile host="Electron" modified="2023-05-03T19:57:17.634Z" agent="Mozilla/5.0 (Windows NT 10.0; Win64; x64) AppleWebKit/537.36 (KHTML, like Gecko) draw.io/21.2.1 Chrome/112.0.5615.87 Electron/24.1.2 Safari/537.36" etag="ly0mDeGUr5EOWg0Z2f0D" version="21.2.1" type="device">
  <diagram name="Page-1" id="97uYhgVweZsbjW95dcUa">
    <mxGraphModel dx="1292" dy="651" grid="1" gridSize="10" guides="1" tooltips="1" connect="1" arrows="1" fold="1" page="1" pageScale="1" pageWidth="850" pageHeight="1100" math="0" shadow="0">
      <root>
        <mxCell id="0" />
        <mxCell id="1" parent="0" />
        <mxCell id="H3EMd08kG4p-ADAFD2Kn-19" value="" style="rounded=0;whiteSpace=wrap;html=1;dashed=1;dashPattern=1 1;" vertex="1" parent="1">
          <mxGeometry x="340" y="510" width="200" height="100" as="geometry" />
        </mxCell>
        <mxCell id="H3EMd08kG4p-ADAFD2Kn-8" value="" style="rounded=0;whiteSpace=wrap;html=1;dashed=1;dashPattern=1 1;" vertex="1" parent="1">
          <mxGeometry x="300" y="160" width="280" height="120" as="geometry" />
        </mxCell>
        <mxCell id="H3EMd08kG4p-ADAFD2Kn-1" value="User browser (frontend)" style="rounded=0;whiteSpace=wrap;html=1;fillColor=#e1d5e7;strokeColor=#9673a6;" vertex="1" parent="1">
          <mxGeometry x="330" width="240" height="30" as="geometry" />
        </mxCell>
        <mxCell id="H3EMd08kG4p-ADAFD2Kn-2" value="" style="endArrow=classic;startArrow=classic;html=1;rounded=0;" edge="1" parent="1" target="H3EMd08kG4p-ADAFD2Kn-1">
          <mxGeometry width="50" height="50" relative="1" as="geometry">
            <mxPoint x="450" y="160" as="sourcePoint" />
            <mxPoint x="430" y="160" as="targetPoint" />
          </mxGeometry>
        </mxCell>
        <mxCell id="H3EMd08kG4p-ADAFD2Kn-3" value="External Users" style="rounded=0;whiteSpace=wrap;html=1;" vertex="1" parent="1">
          <mxGeometry x="610" width="240" height="30" as="geometry" />
        </mxCell>
        <mxCell id="H3EMd08kG4p-ADAFD2Kn-4" value="" style="endArrow=classic;startArrow=classic;html=1;rounded=0;entryX=0.5;entryY=1;entryDx=0;entryDy=0;fontFamily=Helvetica;" edge="1" parent="1" target="H3EMd08kG4p-ADAFD2Kn-3">
          <mxGeometry width="50" height="50" relative="1" as="geometry">
            <mxPoint x="450" y="160" as="sourcePoint" />
            <mxPoint x="630" y="150" as="targetPoint" />
            <Array as="points">
              <mxPoint x="530" y="100" />
              <mxPoint x="730" y="100" />
            </Array>
          </mxGeometry>
        </mxCell>
        <mxCell id="H3EMd08kG4p-ADAFD2Kn-5" value="" style="rounded=0;whiteSpace=wrap;html=1;fillColor=#d5e8d4;strokeColor=#82b366;" vertex="1" parent="1">
          <mxGeometry x="330" y="170" width="240" height="80" as="geometry" />
        </mxCell>
        <mxCell id="H3EMd08kG4p-ADAFD2Kn-6" value="" style="rounded=0;whiteSpace=wrap;html=1;fillColor=#d5e8d4;strokeColor=#82b366;" vertex="1" parent="1">
          <mxGeometry x="320" y="180" width="240" height="80" as="geometry" />
        </mxCell>
        <mxCell id="H3EMd08kG4p-ADAFD2Kn-7" value="Backend" style="rounded=0;whiteSpace=wrap;html=1;fillColor=#d5e8d4;strokeColor=#82b366;" vertex="1" parent="1">
          <mxGeometry x="310" y="190" width="240" height="80" as="geometry" />
        </mxCell>
        <mxCell id="H3EMd08kG4p-ADAFD2Kn-11" value="PostgreSQL Database" style="shape=cylinder3;whiteSpace=wrap;html=1;boundedLbl=1;backgroundOutline=1;size=15;fillColor=#ffe6cc;strokeColor=#d79b00;" vertex="1" parent="1">
          <mxGeometry y="180" width="230" height="80" as="geometry" />
        </mxCell>
        <mxCell id="H3EMd08kG4p-ADAFD2Kn-12" value="" style="endArrow=classic;startArrow=classic;html=1;rounded=0;exitX=1;exitY=0.5;exitDx=0;exitDy=0;exitPerimeter=0;entryX=0;entryY=0.5;entryDx=0;entryDy=0;" edge="1" parent="1" source="H3EMd08kG4p-ADAFD2Kn-11" target="H3EMd08kG4p-ADAFD2Kn-8">
          <mxGeometry width="50" height="50" relative="1" as="geometry">
            <mxPoint x="260" y="260" as="sourcePoint" />
            <mxPoint x="310" y="210" as="targetPoint" />
          </mxGeometry>
        </mxCell>
        <mxCell id="H3EMd08kG4p-ADAFD2Kn-13" value="Kafka" style="shape=cylinder3;whiteSpace=wrap;html=1;boundedLbl=1;backgroundOutline=1;size=15;fillColor=#dae8fc;strokeColor=#6c8ebf;" vertex="1" parent="1">
          <mxGeometry x="410" y="320" width="60" height="140" as="geometry" />
        </mxCell>
        <mxCell id="H3EMd08kG4p-ADAFD2Kn-14" value="" style="endArrow=classic;html=1;rounded=0;exitX=0.75;exitY=1;exitDx=0;exitDy=0;entryX=0.855;entryY=0;entryDx=0;entryDy=4.35;entryPerimeter=0;" edge="1" parent="1" source="H3EMd08kG4p-ADAFD2Kn-8" target="H3EMd08kG4p-ADAFD2Kn-13">
          <mxGeometry width="50" height="50" relative="1" as="geometry">
            <mxPoint x="360" y="420" as="sourcePoint" />
            <mxPoint x="410" y="370" as="targetPoint" />
          </mxGeometry>
        </mxCell>
        <mxCell id="H3EMd08kG4p-ADAFD2Kn-15" value="Summirizing module" style="rounded=0;whiteSpace=wrap;html=1;fillColor=#fff2cc;strokeColor=#d6b656;" vertex="1" parent="1">
          <mxGeometry x="370" y="520" width="160" height="60" as="geometry" />
        </mxCell>
        <mxCell id="H3EMd08kG4p-ADAFD2Kn-17" value="Summirizing module" style="rounded=0;whiteSpace=wrap;html=1;fillColor=#fff2cc;strokeColor=#d6b656;" vertex="1" parent="1">
          <mxGeometry x="360" y="530" width="160" height="60" as="geometry" />
        </mxCell>
        <mxCell id="H3EMd08kG4p-ADAFD2Kn-18" value="Summirizing module" style="rounded=0;whiteSpace=wrap;html=1;fillColor=#fff2cc;strokeColor=#d6b656;" vertex="1" parent="1">
          <mxGeometry x="350" y="540" width="160" height="60" as="geometry" />
        </mxCell>
        <mxCell id="H3EMd08kG4p-ADAFD2Kn-20" value="" style="endArrow=classic;html=1;rounded=0;entryX=0.75;entryY=0;entryDx=0;entryDy=0;exitX=0.855;exitY=1;exitDx=0;exitDy=-4.35;exitPerimeter=0;" edge="1" parent="1" source="H3EMd08kG4p-ADAFD2Kn-13" target="H3EMd08kG4p-ADAFD2Kn-19">
          <mxGeometry width="50" height="50" relative="1" as="geometry">
            <mxPoint x="360" y="420" as="sourcePoint" />
            <mxPoint x="410" y="370" as="targetPoint" />
          </mxGeometry>
        </mxCell>
        <mxCell id="H3EMd08kG4p-ADAFD2Kn-21" value="" style="endArrow=classic;html=1;rounded=0;exitX=0.25;exitY=0;exitDx=0;exitDy=0;entryX=0.145;entryY=1;entryDx=0;entryDy=-4.35;entryPerimeter=0;" edge="1" parent="1" source="H3EMd08kG4p-ADAFD2Kn-19" target="H3EMd08kG4p-ADAFD2Kn-13">
          <mxGeometry width="50" height="50" relative="1" as="geometry">
            <mxPoint x="390" y="430" as="sourcePoint" />
            <mxPoint x="410" y="450" as="targetPoint" />
          </mxGeometry>
        </mxCell>
        <mxCell id="H3EMd08kG4p-ADAFD2Kn-22" value="" style="endArrow=classic;html=1;rounded=0;entryX=0.25;entryY=1;entryDx=0;entryDy=0;exitX=0.145;exitY=0;exitDx=0;exitDy=4.35;exitPerimeter=0;" edge="1" parent="1" source="H3EMd08kG4p-ADAFD2Kn-13" target="H3EMd08kG4p-ADAFD2Kn-8">
          <mxGeometry width="50" height="50" relative="1" as="geometry">
            <mxPoint x="390" y="430" as="sourcePoint" />
            <mxPoint x="440" y="380" as="targetPoint" />
          </mxGeometry>
        </mxCell>
      </root>
    </mxGraphModel>
  </diagram>
</mxfile>
